<svg width="137" height="20" viewBox="0 0 137 20" fill="none" xmlns="http://www.w3.org/2000/svg">
<g clip-path="url(#clip0_2507_606)">
<path d="M0.698254 7.46476C1.16376 6.61235 1.82574 5.95792 2.68571 5.49847C3.54568 5.04052 4.54772 4.81079 5.69334 4.81079C6.58052 4.81079 7.42235 4.97855 8.21733 5.31559C9.01232 5.65263 9.67883 6.15742 10.2154 6.82999C10.7519 7.50406 11.0572 8.32625 11.1282 9.30108H8.4652C8.36545 8.57109 8.06469 8.02246 7.56291 7.65822C7.06113 7.29247 6.43845 7.1111 5.69334 7.1111C5.0495 7.1111 4.49785 7.25015 4.0399 7.52975C3.58195 7.80936 3.23434 8.19627 2.99856 8.69049C2.76279 9.1847 2.64339 9.75449 2.64339 10.3983C2.64339 11.0422 2.76128 11.6195 2.99856 12.1273C3.23434 12.6352 3.58195 13.0296 4.0399 13.3092C4.49785 13.5888 5.0495 13.7279 5.69334 13.7279C6.43845 13.7279 7.06113 13.539 7.56291 13.1581C8.06469 12.7787 8.36545 12.2316 8.4652 11.5152H11.1282C11.0557 12.4886 10.7519 13.3168 10.2154 13.9969C9.67883 14.677 9.01232 15.1818 8.21733 15.5113C7.42235 15.8408 6.58052 16.0055 5.69334 16.0055C4.56132 16.0055 3.56231 15.7728 2.69629 15.3073C1.83027 14.8418 1.16376 14.1873 0.698254 13.341C0.232751 12.4961 0 11.5152 0 10.3983C0 9.28143 0.232751 8.31869 0.698254 7.46627V7.46476Z" fill="black"/>
<path d="M13.5222 10.6341C14.1313 10.09 15.1303 9.74689 16.5193 9.60331L20.3431 9.2164C20.3144 8.41386 20.1028 7.82744 19.7098 7.45414C19.3153 7.08234 18.6896 6.89493 17.8297 6.89493C17.0997 6.89493 16.5223 7.0642 16.1006 7.39973C15.6775 7.73676 15.4387 8.26272 15.3812 8.97911H12.8467C12.9041 8.11914 13.1504 7.37857 13.5872 6.75588C14.024 6.1332 14.615 5.65258 15.3601 5.31705C16.1052 4.98002 16.9561 4.81226 17.9158 4.81226C18.9466 4.81226 19.8413 5.00269 20.6015 5.38204C21.3602 5.7614 21.9481 6.30549 22.3623 7.01433C22.7779 7.72316 22.985 8.59371 22.985 9.62447V13.5132H24.5538V15.7909H22.3834C21.9255 15.7909 21.5703 15.6654 21.3194 15.4145C21.0685 15.1636 20.9431 14.81 20.9431 14.3505V12.7817H21.0292C20.7859 13.7414 20.3023 14.5183 19.5798 15.1123C18.8559 15.7062 17.7934 16.004 16.3893 16.004C14.9853 16.004 13.9696 15.6745 13.4255 15.0155C12.8814 14.3566 12.6094 13.6266 12.6094 12.824C12.6094 11.9082 12.9132 11.1766 13.5222 10.6326V10.6341ZM15.6699 13.5238C15.9782 13.7596 16.4029 13.879 16.9485 13.879C17.6075 13.879 18.1939 13.746 18.7108 13.4815C19.2262 13.217 19.6267 12.8482 19.9138 12.3752C20.1995 11.9021 20.3431 11.3656 20.3431 10.764L16.9924 11.1721C16.9349 11.1721 16.8488 11.1872 16.7339 11.2144C16.2034 11.2719 15.8165 11.3973 15.5732 11.5908C15.3298 11.7842 15.2074 12.0593 15.2074 12.4175C15.2074 12.9193 15.3616 13.288 15.6699 13.5238Z" fill="black"/>
<path d="M25.7867 5.02692H28.4074V7.84109H28.3212C28.5933 6.9388 29.0482 6.20881 29.686 5.6496C30.3223 5.0904 31.1505 4.8123 32.1677 4.8123C33.0125 4.8123 33.6851 5.02389 34.1869 5.44557C34.6887 5.86875 35.0499 6.44761 35.272 7.18516C35.4942 7.92271 35.6045 8.81442 35.6045 9.86029V15.7894H33.1335V10.0749C33.1335 9.37363 33.076 8.80686 32.9612 8.37763C32.8463 7.9484 32.6528 7.6295 32.3808 7.42244C32.1087 7.21539 31.743 7.1111 31.285 7.1111C30.5974 7.1111 30.0427 7.29398 29.6195 7.65822C29.1963 8.02397 28.8895 8.53633 28.6961 9.19377C28.5026 9.85273 28.4059 10.684 28.4059 11.686V15.7894H25.7852V5.02692H25.7867ZM35.1738 7.99072H35.195C35.467 7.05971 35.9461 6.29798 36.6338 5.7025C37.3215 5.10853 38.2298 4.81079 39.3618 4.81079C40.6797 4.81079 41.6319 5.2506 42.2183 6.13173C42.8047 7.01286 43.0994 8.25521 43.0994 9.85878V15.7879H40.4787V10.0734C40.4787 9.37212 40.4213 8.80535 40.3064 8.37612C40.1916 7.94689 39.9981 7.62799 39.7261 7.42093C39.454 7.21387 39.0883 7.10959 38.6303 7.10959C37.9426 7.10959 37.388 7.29247 36.9648 7.65671C36.5416 8.02246 36.2348 8.53481 36.0413 9.19226C35.8479 9.85122 35.7512 10.6825 35.7512 11.6845V15.7879H33.1727L35.1708 7.99072H35.1738Z" fill="black"/>
<path d="M45.355 5.02682H47.9757V7.90599H47.7823C48.1405 6.96138 48.6921 6.20872 49.4357 5.65102C50.1808 5.09181 51.1617 4.81372 52.3784 4.81372C53.4379 4.81372 54.3447 5.05403 55.0958 5.53313C55.847 6.01375 56.4168 6.67876 56.8037 7.53117C57.1906 8.38358 57.384 9.34633 57.384 10.4209C57.384 11.4955 57.1906 12.4507 56.8037 13.288C56.4168 14.1253 55.8485 14.7888 55.0958 15.2754C54.3447 15.7621 53.4379 16.0054 52.3784 16.0054C51.1466 16.0054 50.1551 15.7228 49.4025 15.1576C48.6513 14.5923 48.1103 13.8442 47.7808 12.9132H47.9742V20.0015H45.3535V5.02682H45.355ZM53.1855 13.362C53.6797 13.1187 54.0666 12.753 54.3447 12.2663C54.6243 11.7796 54.7633 11.163 54.7633 10.4194C54.7633 9.67581 54.6243 9.05917 54.3447 8.57251C54.0651 8.08584 53.6782 7.72009 53.1855 7.47676C52.6912 7.23343 52.1078 7.11101 51.4353 7.11101C50.7627 7.11101 50.1718 7.23343 49.6624 7.47676C49.1546 7.72009 48.7526 8.08887 48.4594 8.58309C48.1662 9.0773 48.0196 9.68941 48.0196 10.4194C48.0196 11.1494 48.1662 11.7615 48.4594 12.2557C48.7526 12.7499 49.1531 13.1187 49.6624 13.362C50.1703 13.6054 50.7612 13.7278 51.4353 13.7278C52.1094 13.7278 52.6912 13.6069 53.1855 13.362Z" fill="black"/>
<path d="M59.1412 5.02692H61.7619V7.84109H61.6757C61.9478 6.9388 62.4027 6.20881 63.0405 5.6496C63.6768 5.0904 64.505 4.8123 65.5222 4.8123C66.367 4.8123 67.0396 5.02389 67.5414 5.44557C68.0432 5.86875 68.4044 6.44761 68.6265 7.18516C68.8487 7.92271 68.959 8.81442 68.959 9.86029V15.7894H66.4879V10.0749C66.4879 9.37363 66.4305 8.80686 66.3157 8.37763C66.2008 7.9484 66.0073 7.6295 65.7353 7.42244C65.4632 7.21539 65.0975 7.1111 64.6395 7.1111C63.9519 7.1111 63.3972 7.29398 62.974 7.65822C62.5508 8.02397 62.244 8.53633 62.0506 9.19377C61.8571 9.85273 61.7604 10.684 61.7604 11.686V15.7894H59.1396V5.02692H59.1412ZM68.5283 7.99072H68.5495C68.8215 7.05971 69.3006 6.29798 69.9883 5.7025C70.676 5.10853 71.5843 4.81079 72.7163 4.81079C74.0342 4.81079 74.9864 5.2506 75.5728 6.13173C76.1592 7.01286 76.4539 8.25521 76.4539 9.85878V15.7879H73.8332V10.0734C73.8332 9.37212 73.7758 8.80535 73.6609 8.37612C73.5461 7.94689 73.3526 7.62799 73.0806 7.42093C72.8085 7.21387 72.4428 7.10959 71.9848 7.10959C71.2971 7.10959 70.7425 7.29247 70.3193 7.65671C69.8961 8.02246 69.5893 8.53481 69.3958 9.19226C69.2024 9.85122 69.1056 10.6825 69.1056 11.6845V15.7879H66.5272L68.5253 7.99072H68.5283Z" fill="black"/>
<path d="M78.0605 13.5117H81.0682V7.32565H78.6621V5.02686H82.0128C82.4858 5.02686 82.8501 5.14928 83.1085 5.39261C83.367 5.63594 83.4954 6.00925 83.4954 6.50951V13.5132H86.5242V15.7909H78.0605V13.5132V13.5117Z" fill="black"/>
<path d="M88.1158 5.02692H90.7365V8.09803H90.6503C90.8937 7.08087 91.4015 6.27985 92.1753 5.69192C92.9491 5.10551 93.93 4.81079 95.118 4.81079C96.4359 4.81079 97.4591 5.22944 98.1891 6.06674C98.9191 6.90404 99.2848 8.09652 99.2848 9.64416V15.7879H96.6429V10.0099C96.6429 8.96404 96.4525 8.22045 96.0731 7.77611C95.6938 7.33176 95.0666 7.10959 94.193 7.10959C93.4766 7.10959 92.8645 7.27131 92.3567 7.59323C91.8489 7.91515 91.4514 8.40635 91.1642 9.06531C90.877 9.72426 90.735 10.5404 90.735 11.5137V15.7879H88.1143V5.02692H88.1158Z" fill="black"/>
<path d="M103.287 15.2739C102.536 14.7873 101.966 14.1208 101.579 13.2759C101.192 12.431 100.999 11.4713 100.999 10.3967C100.999 9.32215 101.192 8.3458 101.579 7.50699C101.966 6.66969 102.535 6.01073 103.287 5.53011C104.038 5.05101 104.945 4.8107 106.005 4.8107C107.25 4.8107 108.242 5.09786 108.981 5.67067C109.718 6.24348 110.259 6.98859 110.602 7.90448H110.388V0H113.03V15.7893H110.388V12.9101H110.602C110.259 13.8548 109.711 14.6074 108.959 15.1651C108.208 15.7243 107.223 16.0024 106.006 16.0024C104.947 16.0024 104.04 15.7591 103.289 15.2724L103.287 15.2739ZM108.712 13.3515C109.227 13.1006 109.632 12.7258 109.925 12.224C110.218 11.7222 110.365 11.1146 110.365 10.3982C110.365 9.68186 110.218 9.08033 109.925 8.59367C109.632 8.10701 109.227 7.73823 108.712 7.48734C108.196 7.23645 107.616 7.11101 106.972 7.11101C106.328 7.11101 105.711 7.23343 105.21 7.47676C104.708 7.72009 104.321 8.08585 104.05 8.57251C103.778 9.05917 103.642 9.66825 103.642 10.3982C103.642 11.1282 103.778 11.7192 104.05 12.2134C104.323 12.7076 104.709 13.084 105.21 13.3409C105.711 13.5993 106.298 13.7278 106.972 13.7278C107.646 13.7278 108.196 13.6024 108.712 13.3515Z" fill="black"/>
<path d="M124.47 9.36593L123.224 10.5267V9.68936C123.224 8.78707 122.963 8.08126 122.44 7.57344C121.917 7.06562 121.211 6.8102 120.324 6.8102C119.751 6.8102 119.249 6.92808 118.82 7.16537C118.391 7.40114 118.057 7.73818 117.821 8.17497C117.585 8.61175 117.466 9.13771 117.466 9.75435V10.6778C117.479 11.6798 117.738 12.4794 118.24 13.0733C118.741 13.6673 119.456 13.965 120.387 13.965C121.146 13.965 121.766 13.7973 122.245 13.4602C122.724 13.1232 123.043 12.6411 123.2 12.0108H125.8C125.585 13.1852 125.026 14.1449 124.123 14.89C123.221 15.6351 121.982 16.0069 120.407 16.0069C119.246 16.0069 118.252 15.7636 117.421 15.2769C116.589 14.7902 115.956 14.1162 115.519 13.2577C115.082 12.3977 114.863 11.4184 114.863 10.3151C114.863 9.21177 115.088 8.18555 115.54 7.36185C115.991 6.53815 116.626 5.90791 117.442 5.47112C118.258 5.03433 119.196 4.81519 120.256 4.81519C121.961 4.81519 123.306 5.28371 124.294 6.22227C125.283 7.16084 125.777 8.46062 125.777 10.1216V10.9589H117.099V9.36895H124.467L124.47 9.36593Z" fill="black"/>
<path d="M128.215 5.43493C128.494 5.16288 128.913 5.02686 129.471 5.02686H136.022V7.32565H130.438V15.7893H127.796V6.6803C127.796 6.12109 127.935 5.70697 128.215 5.43493Z" fill="black"/>
<path d="M83.4292 0.554688V2.99858L80.7949 3.01974V0.554688H83.4292Z" fill="black"/>
</g>
<defs>
<clipPath id="clip0_2507_606">
<rect width="136.024" height="20" fill="white"/>
</clipPath>
</defs>
</svg>
